<svg xmlns="http://www.w3.org/2000/svg" viewBox="0 0 3110.6 1000"><defs><style>.cls-1{fill:#c69c6d;}.cls-2{fill:#ad1457;}.cls-3{fill:#570a2c;}.cls-4{fill:#fff;}.cls-5{fill:#754c24;}</style></defs><title>Binarybeast_Branding_Full_2</title><g id="Layer1"><polygon class="cls-1" points="524.1 247.05 515.53 271.43 486.91 308.04 390.18 344.4 338.9 305.57 326.64 292.54 320.81 286.35 259.46 221.13 254.94 194.03 295.58 130.81 358.61 92.91 419.18 69.86 451.37 75.69 483.99 127.08 513.2 194.34 524.1 247.05"/><path class="cls-2" d="M603.34,583.53l-31.4-82.19.16-.35.08-.19.17-.38.71-1.59.31-.7.4-.88.64-1.44.57-1.27.23-.53.57-1.26.68-1.53.77-1.74.27-.6,2.64-5.91.27-.61,1.22-2.72.88-2,.16-.35,1.15-2.57-20.18,4.9,14.86-67.78L543.34,423.1l1.88-10.68-58.4-133.48-26.26,13.5-9.67,8.71.23,1.8h0l-.23-1.8L437.94,312.8l-11.7,63.31-24.43,37.16L344.69,403,188,423.39l-54.68-22.06q5.91,26.37,11.83,52.73l-23.83,5.23,18.84,27.18-21.26,84.3s-10.79,125.32-13.15,134.76l26.76,141.65,153.39,43H286l108-.88,9.58,20.12h0l15-14.61,32.72,35.38.88-49.45,150.12-59.77,27.1-99.29Z"/><polygon class="cls-3" points="421.57 505.88 484.11 522.08 528.77 506.04 545.22 412.42 486.82 278.94 460.56 292.44 450.89 301.15 466.6 422.02 411.13 496.18 421.57 505.88"/><polygon class="cls-3" points="603.34 583.53 598.77 711.37 569.15 776.53 457.23 831.16 447.86 853.02 429.13 823.36 418.2 845.22 287.04 860.83 148.57 851.67 285.93 890.13 403.96 889.17 403.64 909.37 427.19 886.38 451.32 930.14 452.2 880.69 602.33 820.92 629.42 721.63 603.34 583.53"/><path class="cls-3" d="M174.89,457.15q-20.77-27.91-41.54-55.82,5.91,26.37,11.83,52.73Z"/><path class="cls-3" d="M121.35,459.29l18.84,27.18,16.44-12.7Z"/><polygon class="cls-3" points="578.5 411.85 553.36 456.97 563.64 479.63 578.5 411.85"/><path class="cls-3" d="M571.94,501.34l11.88-26.61c-8.53,6.55-17.1,13.69-17.1,13.69Z"/><polygon class="cls-4" points="322.59 645.39 353.67 666.7 426.39 668.96 342.72 677.36 322.59 645.39"/><polygon class="cls-4" points="314.63 616.27 276.27 662.73 223.59 645.06 211.28 609.48 202.94 564.07 262.23 601.11 314.63 616.27"/><polygon class="cls-4" points="482.38 603.42 510.02 642.3 547.99 627.52 556.86 597.73 562.87 559.73 520.14 590.73 482.38 603.42"/><polygon class="cls-5" points="403.06 240.33 385.97 251.97 372.12 246.38 362.75 232.01 360.37 213.37 378.74 194.68 402.85 209.14 403.06 240.33"/><polygon class="cls-5" points="359.96 270.58 354.42 280.42 361.21 289.3 368.32 291.49 374.5 284.28 375.87 279.77 369.48 270.99 359.96 270.58"/><polygon class="cls-5" points="326.62 205.43 315.28 207.89 311.95 217.04 316.86 228.65 327.89 233.41 336.55 225.81 336.21 217.12 326.62 205.43"/><polygon class="cls-5" points="355.63 159.83 351.3 154.17 342.97 153.04 339.93 159.4 341.72 167.43 344.63 169.87 352.26 170.79 355.29 165.93 355.63 159.83"/><polygon class="cls-5" points="483.81 127.08 451.2 75.68 419.01 69.86 358.61 92.91 399.45 155.45 424.55 220.27 433.73 273.21 401.69 310.22 390.2 344.32 435.25 327.39 437.94 312.8 450.89 301.15 460.56 292.44 486.82 278.94 494.95 297.53 515.35 271.43 524.1 247.05 513.2 194.34 483.81 127.08"/><polygon class="cls-5" points="287.52 203.23 279.39 232.19 278.18 241.02 287 250.4 286.09 233.55 293.47 203.31 304.24 185.61 312 178.37 300.77 181.57 287.52 203.23"/><polygon class="cls-5" points="331.01 265.94 325.63 282.06 326.64 292.54 320.81 286.35 320.39 283.35 324.73 268.71 337.81 253.85 331.01 265.94"/><path class="cls-4" d="M1443.81,573.31c-14.21-18.27-35.32-26.39-56.85-26.39-71,0-105.57,49.54-106.38,109.64-.41,60.51,35.73,116.54,105.57,116.54,21.12,0,42.64-6.09,57.66-24.77v21.92l63.76-48.62V550.57h-63.76Zm-50,138.48c-32.88,0-49.54-27.22-49.13-53.61.4-26.79,16.65-52.39,49.13-52.39,27.62,0,50,24,50,53.2S1421.48,711.79,1393.86,711.79Z"/><path class="cls-4" d="M1175.41,547.33c-23.56,0-49.54,5.68-65,25.17V550.57h-64.57V770.25h67.81V650.88c0-28,22.74-44.26,41.82-44.26,17.47,0,34.11,13.4,34.11,43V770.25h65v-121C1255,594.44,1237.94,548.14,1175.41,547.33Z"/><path class="cls-4" d="M985.78,432.52a46.12,46.12,0,1,0,46.1,46.12A46.12,46.12,0,0,0,985.78,432.52Z"/><polygon class="cls-4" points="954.09 550.57 954.09 696.71 954.09 770.25 1017.45 770.25 1017.45 721.63 1017.45 696.71 1017.45 549.99 954.86 549.99 954.09 550.57"/><path class="cls-4" d="M826.27,546.92c-21.52,0-42.63,6.91-57.26,23.56V481.14l-63.34-48.62V721.63L769,770.25V748.33c15,18.68,37,24.77,58.07,24.77,69.84,0,106-56,105.58-116.54C931.85,596.46,897.33,546.92,826.27,546.92Zm-6.9,164.87c-27.62,0-50.36-23.56-50.36-52.8s22.74-53.2,50.36-53.2c32.48,0,48.72,25.6,49.12,52.39C868.91,684.57,852.26,711.79,819.37,711.79Z"/><path class="cls-4" d="M2607.05,573.31c-14.21-18.27-35.33-26.39-56.85-26.39-71.07,0-105.57,49.54-106.4,109.64-.4,60.51,35.74,116.54,105.59,116.54,21.11,0,42.64-6.09,57.66-24.77v21.92l63.74-48.62V550.57h-63.74Zm-50,138.48c-32.88,0-49.54-27.22-49.13-53.61.4-26.79,16.65-52.39,49.13-52.39,27.61,0,50,24,50,53.2S2584.71,711.79,2557.1,711.79Z"/><path class="cls-4" d="M2978.06,550.57V432.52l-63.75,48.62v69.43h-28.83v54.82h28.83V773.22l63.75-48.62V605.39h28.83V550.57Z"/><path class="cls-4" d="M1605.82,562v-11.4h-63.75V770.25h63.75V648.43c0-29.63,23.55-41.81,46.7-42.22a74.91,74.91,0,0,1,21.52,3.24l.81-60.1a109.85,109.85,0,0,0-24.77-3.24C1633.74,546.11,1619.08,550.89,1605.82,562Z"/><polygon class="cls-4" points="1809.44 668.66 1764.17 549.99 1695.94 549.99 1775.32 758.13 1726.63 887.4 1822.72 814.38 1922.93 549.99 1854.7 549.99 1809.44 668.66"/><path class="cls-4" d="M2063.34,546.92c-21.52,0-42.64,6.91-57.25,23.56V481.14l-63.35-48.62V721.63l63.35,48.62V748.33c15,18.68,37,24.77,58.06,24.77,69.85,0,106-56,105.58-116.54C2168.91,596.46,2134.4,546.92,2063.34,546.92Zm-6.91,164.87c-27.6,0-50.34-23.56-50.34-52.8s22.74-53.2,50.34-53.2c32.5,0,48.73,25.6,49.14,52.39C2106,684.57,2089.33,711.79,2056.43,711.79Z"/><path class="cls-4" d="M2307,547.93c-57.25-.4-114.52,37-114.52,112.49,0,74.31,55.23,111.66,110.87,112.87,46.28.82,92.59-23.14,109.64-71.86h-69.44c-9.34,10.16-22.75,15-37,15-19.47-.39-39.38-10.55-47.09-30.85H2417a125.55,125.55,0,0,0,2.44-25.17C2419.45,585.71,2363.41,548.35,2307,547.93Zm-45.07,87.71c6.5-21.52,24-32.07,43.05-32.07,20.7,0,38.57,10.16,44.65,32.07Z"/><path class="cls-4" d="M2784.43,629.36c-9.34-.42-26.4-.81-26.4-12.2,0-11.75,13-15,22.33-15,13.41,0,30.46,1.21,30.86,18.27h61.33c-.42-51.16-41.43-75.12-88.54-75.12-49.12,0-90.54,22.75-90.54,75.93,0,48.32,43.05,64.17,84.45,67.82,10.57.81,34.92-1.21,34.92,14.61,0,7.71-11.36,13.8-28,13.41-14.61,0-30-6.09-30.44-20.71h-64.16c.81,56,40.61,79.58,93,79.58,48.74,0,93.81-18.68,93.81-73.91C2877,650.06,2830.31,630.57,2784.43,629.36Z"/></g></svg>